<?xml version="1.0" encoding="UTF-8"?><svg id="Layer_2" xmlns="http://www.w3.org/2000/svg" viewBox="0 0 337.68 297.96"><defs><style>.cls-1{fill:#301a4b;}.cls-2{fill:#cab3e4;}</style></defs><g id="Layer_1-2"><g><g><rect class="cls-2" x="25.38" y="247.08" width="40.39" height="48.87" rx="2.02" ry="2.02"/><rect class="cls-2" x="81.33" y="187.17" width="40.39" height="108.77" rx="2.02" ry="2.02"/><rect class="cls-2" x="137.29" y="196.91" width="40.39" height="99.03" rx="2.02" ry="2.02"/><rect class="cls-2" x="193.24" y="160.27" width="40.39" height="135.68" rx="2.02" ry="2.02"/><rect class="cls-2" x="249.19" y="41.39" width="40.39" height="254.55" rx="2.02" ry="2.02"/></g><g><path class="cls-1" d="m45.58,247.08h0c-.82-.76-.86-2.04-.1-2.85l54.58-58.43c.46-.5,1.15-.73,1.82-.61l54.38,9.47c.5.09,1.02-.02,1.45-.3l53.67-35.14c.31-.2.56-.49.72-.83l50.09-106.41c.47-1.01,1.68-1.44,2.69-.97h0c1.01.48,1.44,1.68.97,2.69l-50.57,107.44c-.16.34-.41.62-.72.83l-55.95,36.64c-.43.28-.95.39-1.45.3l-53.8-9.36c-.67-.12-1.36.11-1.82.61l-53.09,56.83c-.76.81-2.04.86-2.85.1Z"/><path class="cls-1" d="m257.48,49.34l13.38,6.3c1.63.77,3.37-.82,2.76-2.51l-3.54-9.84c-.38-1.05-1.53-1.59-2.58-1.22l-9.84,3.54c-1.69.61-1.8,2.96-.18,3.72Z"/></g><path class="cls-1" d="m335.66,297.96H2.02c-1.11,0-2.02-.9-2.02-2.02V2.02C0,.9.9,0,2.02,0h0c1.11,0,2.02.9,2.02,2.02v289.89c0,1.11.9,2.02,2.02,2.02h329.6c1.11,0,2.02.9,2.02,2.02h0c0,1.12-.9,2.02-2.02,2.02Z"/></g></g></svg>